<?xml version="1.0" encoding="utf-8"?>
<!-- Generator: Adobe Illustrator 23.0.3, SVG Export Plug-In . SVG Version: 6.00 Build 0)  -->
<svg version="1.1" id="Capa_1" xmlns="http://www.w3.org/2000/svg" xmlns:xlink="http://www.w3.org/1999/xlink" x="0px" y="0px"
	 viewBox="0 0 608 791.9" style="enable-background:new 0 0 608 791.9;" xml:space="preserve">
<g>
	<path d="M440.7,323c0,9.7-7.7,17.4-17.4,17.4h-295c-9.7,0-17.4-7.7-17.4-17.4s7.7-17.4,17.4-17.4h294
		C432,304.6,440.7,312.3,440.7,323z M105.1,214.7v-78.3c0-15.5,12.5-29,29-29h279.5c15.5,0,29,12.5,29,29v78.3c0,15.5-12.5,29-29,29
		H134.2C117.7,243.7,105.1,231.1,105.1,214.7z M140.9,207.9h265.9v-64.8H140.9L140.9,207.9L140.9,207.9z M559.7,612.1l-1,147
		c0,30-20.3,31.9-24.2,31.9c-5.8,0-12.5-2-18.4-6.8l-48.4-40.7l-46.4,38.7c-4.8,3.8-12.5,9.7-21.3,9.7c-10.7,0-21.3-7.7-23.2-23.2
		c0-1,0-1,0-2v-28.9H53.8c-26.1,0-47.4-21.3-47.4-47.4V47.4C6.5,21.2,27.8,0,53.8,0h449.7c26.1,0,47.4,21.3,47.4,47.4V410
		c14.5,10.7,26.1,25.2,34.8,41.5C614.7,505.7,602.2,572.5,559.7,612.1z M553.8,469c-7.7-14.5-19.3-27-32.9-35.8
		c-2.9-2-5.8-2.9-7.7-4.8c-1,0-2-1-2.9-1c-3.8-2-6.8-2.9-10.7-4.8c0,0,0,0-1,0c-20.3-6.8-43.5-6.8-63.8,1h-1
		c-3.8,2-7.7,2.9-11.6,5.8c-32.9,17.4-51.2,51.2-51.2,86l0,0l0,0c0,15.5,3.9,31,11.6,46.4c2,3.8,3.9,6.8,6.8,10.7c1,1,1,2,2,2.9
		c2,2.9,3.9,4.8,5.8,6.8c1,1,1,1,2,2c2.9,2.9,5.8,5.8,8.7,7.7l1,1c2.9,2,4.8,3.8,7.7,5.8l1,1c1,0,1,1,2,1s2,1,2.9,1c1,1,2.9,1,3.8,2
		c22.2,10.7,47.4,12.5,71.5,5.8c1,0,2.9-1,3.8-1s1,0,2-1c1,0,2-1,2.9-1c2.9-1,5.8-2.9,8.7-3.8c2.9-2,5.8-2.9,7.7-4.8
		c2.9-2,4.8-3.8,7.7-5.8C565.5,561.9,577,510.6,553.8,469z M376.9,700.1v-68.7H128.3c-9.7,0-17.4-7.7-17.4-17.4
		c0-9.7,7.7-17.4,17.4-17.4h233.1l0,0c-1-2-2-2.9-3.9-4.8c-1-1-2-2-2-2.9c-2-2-2.9-4.8-4.8-7.7l-1-1c-2-3.8-3.9-7.7-5.8-12.5l0,0
		c-3.9-10.7-6.8-21.3-8.7-31.9H128.3c-9.7,0-17.4-7.7-17.4-17.4c0-9.7,7.7-17.4,17.4-17.4h206.9c1-6.8,2-13.5,3.9-20.3
		c4.8-14.5,11.6-28,20.3-39.7H128.3c-9.7,0-17.4-7.7-17.4-17.4s7.7-17.4,17.4-17.4h269.8c2-1,3.9-2,5.8-3.9c3.9-2,7.7-3.9,12.5-5.8
		h1c15.5-6.8,32.9-9.7,50.3-9.7c16.5,0,31.9,2.9,46.4,8.7l0,0V47.4c0-6.8-4.8-11.6-11.6-11.6H53.8c-6.8,0-11.6,4.8-11.6,11.6v640.2
		c0,6.8,4.8,11.6,11.6,11.6h323L376.9,700.1L376.9,700.1L376.9,700.1z M523.8,637.3c-1,0-1,0-2,1c0,0-1,0-1,1h-1c-2,1-3.8,1-5.8,2
		c-1,0-1,0-2,1c-1,0-2,1-2.9,1c0,0,0,0-1,0c0,0,0,0-1,0s-1,0-2,1h-1c-1,0-2,0-2.9,1c-1,0-2.9,1-4.8,1c-1,0-2.9,1-3.8,1l0,0l0,0
		c-2,0-3.8,1-6.8,1c-1,0-2.9,0-3.8,1h-1c-1,0-1,0-2,0l0,0c-1,0-1,0-2,0c-2.9,0-5.8,0-7.7,0l0,0l0,0c-1,0-1,0-2,0s-1,0-2,0l0,0l0,0
		c-2.9,0-6.8,0-9.7-1l0,0l0,0l0,0h-1h-1c-12.5-1-25.2-4.8-35.8-9.7l0,0l0,0c-1-1-2.9-1-3.9-2l0,0l-1,105.4l43.5-36.7
		c2.9-2.9,7.7-3.8,11.6-3.8s8.7,1,11.6,3.8l43.5,36.7L523.8,637.3z"/>
</g>
</svg>
