<?xml version="1.0" encoding="utf-8"?>
<!-- Generator: Adobe Illustrator 23.0.3, SVG Export Plug-In . SVG Version: 6.00 Build 0)  -->
<svg version="1.1" id="Layer_1" xmlns="http://www.w3.org/2000/svg" xmlns:xlink="http://www.w3.org/1999/xlink" x="0px" y="0px"
	 viewBox="0 0 132 72"  ">
<g id="Cargo_1">
	<g>
		<path d="M74.3,1.7v16h17.6c8.8,0,19.3,7.2,23.5,16l14.9,24v8c0,8.8-7.2,16-16,16c0,8.8-7.2,16-16,16s-16-7.2-16-16h-32
			c0,8.8-7.2,16-16,16s-16-7.2-16-16c-8.8,0-16-7.2-16-16v-64H74.3z M98.3,89.7c4.4,0,8-3.6,8-8s-3.6-8-8-8s-8,3.6-8,8
			S93.9,89.7,98.3,89.7z M34.3,89.7c4.4,0,8-3.6,8-8s-3.6-8-8-8s-8,3.6-8,8S29.9,89.7,34.3,89.7z M10.3,65.7c0,4.4,3.6,8,8,8h2.2
			c2.8-4.8,7.9-8,13.8-8s11,3.2,13.8,8h36.4c2.8-4.8,7.9-8,13.8-8s11,3.2,13.8,8h2.2c4.4,0,8-3.6,8-8v-8l-6.4-8l-7.3-11.8l-0.3-0.4
			l-0.2-0.4c-2.8-6-10.5-11.4-16.2-11.4H74.3v32h-64V65.7z M10.3,49.7h56v-40h-56V49.7z"/>
	</g>
</g>
</svg>
