<?xml version="1.0" encoding="utf-8"?>
<!-- Generator: Adobe Illustrator 23.0.3, SVG Export Plug-In . SVG Version: 6.00 Build 0)  -->
<svg version="1.1" id="Layer_1" xmlns="http://www.w3.org/2000/svg" xmlns:xlink="http://www.w3.org/1999/xlink" x="0px" y="0px"
	 viewBox="0 0 128 128" style="enable-background:new 0 0 128 128;" xml:space="preserve">
<g id="Cargo_1">
	<g>
		<path d="M72,16v16h17.6c8.8,0,19.3,7.2,23.5,16L128,72v8c0,8.8-7.2,16-16,16c0,8.8-7.2,16-16,16s-16-7.2-16-16l-32,0
			c0,8.8-7.2,16-16,16s-16-7.2-16-16C7.2,96,0,88.8,0,80l0-64L72,16z M96,104c4.4,0,8-3.6,8-8s-3.6-8-8-8c-4.4,0-8,3.6-8,8
			S91.6,104,96,104z M32,104c4.4,0,8-3.6,8-8s-3.6-8-8-8s-8,3.6-8,8S27.6,104,32,104z M8,80c0,4.4,3.6,8,8,8h2.2
			c2.8-4.8,7.9-8,13.8-8s11,3.2,13.8,8l36.4,0c2.8-4.8,7.9-8,13.8-8s11,3.2,13.8,8h2.2c4.4,0,8-3.6,8-8v-8l-6.4-8l-7.3-11.8
			l-0.3-0.4l-0.2-0.4c-2.8-6-10.5-11.4-16.2-11.4H72l0,32L8,72L8,80z M8,64l56,0V24L8,24L8,64z"/>
	</g>
</g>
</svg>
