<svg xmlns="http://www.w3.org/2000/svg" id="Слой_1" viewBox="0 0 305.5 288.9"><style>.st0{fill:#2e263a;stroke:#2e263a;stroke-width:4;stroke-miterlimit:10}</style><path class="st0" d="M3.2.9h18.4v287.9H3.2zM284.3.9h18.4v287.9h-18.4z"/><path d="M78 242V267.9H58.4V242H78m11.2-21h-42c-5.4 0-9.8 4.2-9.8 9.3V288.9H99V230.3c0-5.2-4.4-9.3-9.8-9.3z" fill="#2e263a"/><g><path d="M225 122.4l-.1-.1c-1-1.7.4-6.7 1-8.4 2-6 5.3-12.1 8.4-17.6 3.5-6.1 7.3-12.1 10.8-18.2 2.6-4.6 6.3-11.1 6.3-16.4 0-6.4-5.3-10.4-10.8-12.2-3.9-1.3-8.9-2.2-12.7-.3-15-6.8-23.3-18-25.1-20.4-.7-1-3.2-1.5-6-1.7v-3.7c0-1.4-.1-1 1.2-1.4 6.5-2 8.2-7.4 7-12.2-3.1-12.6-19.6-11.5-21 2.2 0 1.3 1 2.3 2.3 2.3 1.3 0 2.3-1 2.3-2.3 1-9.7 12.8-7 12 1.1-.2 2.4-1.9 4.5-6 4.9-1.6.2-2.1 1.1-2.1 3.3V27c-2.8.2-5.3.8-6 1.7-1.8 2.4-10 13.6-25.1 20.4-3.8-1.9-8.8-1-12.7.3-5.6 1.9-10.8 5.8-10.8 12.2 0 5.3 3.7 11.8 6.2 16.3 3.5 6.2 7.2 12.2 10.7 18.4 3.2 5.7 6.8 12.3 8.7 18.6.3 1.1 1.7 6.3.9 7.3-25.7 31.8-44.3 78.1-44.3 119.1 0 13.2 17.1 17.9 27.3 20 15 3.1 31.8 4 47.2 3.9 15.3-.1 32-1.1 47.1-4.2 10-2.1 27.2-6.8 27.2-19.7.1-41.2-18.6-86.8-43.9-118.9zm-33.7-81.2c2.5-.4 4.2-.4 6.7 0s14.6 7.1 24.7 14.5c-.8 2-1.6 4.1-2.3 5.5-2.7 5.9-6.2 11.4-10.2 16.5-7.8 10.1-23.3 10.1-31.1 0-4-5.1-7.5-10.6-10.2-16.5-.6-1.4-1.4-3.5-2.3-5.5 10.2-7.5 22.3-14.1 24.7-14.5zm-62.7 200c0-45.5 23.1-89.8 42.4-113.9 10.9-13.6-24.7-55.7-24.7-65.8 0-4 10.6-6 11.5-4.9.9 1.1 3.5 11.7 14.6 26.2 11.2 14.5 33.1 14.5 44.3 0 11.2-14.5 13.7-25.1 14.6-26.2.9-1.1 11.5.9 11.5 4.9 0 10.5-35.9 51.7-24.6 66 19.1 24.3 42.3 68.3 42.3 113.7.2 20.3-131.9 21.4-131.9 0z" fill="#2e263a" stroke="#2e263a" stroke-width="6" stroke-miterlimit="10"/></g></svg>